<svg width="62" height="62" viewBox="0 0 62 62" fill="none" xmlns="http://www.w3.org/2000/svg">
<circle cx="31" cy="31" r="30.2943" fill="#F2F4F7" stroke="#F2F4F7" stroke-width="0.588608"/>
<mask id="mask0_117_21522" style="mask-type:alpha" maskUnits="userSpaceOnUse" x="1" y="1" width="60" height="60">
<circle cx="31" cy="31" r="30" fill="white"/>
</mask>
<g mask="url(#mask0_117_21522)">
<path d="M24.9717 21.7468C24.9717 21.1945 25.4194 20.7468 25.9717 20.7468H43.3261V29.0063H24.9717V21.7468Z" fill="#F2F4F7"/>
<path d="M33.6542 25.8766H33.378L33.9985 24.1524H34.2991L34.9195 25.8766H34.6434L34.1559 24.4656H34.1425L33.6542 25.8766ZM33.7005 25.2014H34.5963V25.4203H33.7005V25.2014Z" fill="#0C0F1E"/>
<path d="M24.9717 21.7468C24.9717 21.1945 25.4194 20.7468 25.9717 20.7468H43.3261V29.0063H24.9717V21.7468Z" stroke="#667085" stroke-width="0.5"/>
<rect x="24.9717" y="29.0063" width="18.3544" height="8.2595" fill="white"/>
<rect x="24.9717" y="29.0063" width="18.3544" height="8.2595" stroke="#667085" stroke-width="0.5"/>
<rect x="43.3262" y="29.0063" width="18.3544" height="8.2595" fill="white"/>
<rect x="43.3262" y="29.0063" width="18.3544" height="8.2595" stroke="#667085" stroke-width="0.5"/>
<rect x="24.9717" y="37.2658" width="18.3544" height="8.2595" fill="white"/>
<rect x="24.9717" y="37.2658" width="18.3544" height="8.2595" stroke="#667085" stroke-width="0.5"/>
<rect x="24.9717" y="45.5253" width="18.3544" height="8.2595" fill="white"/>
<rect x="24.9717" y="45.5253" width="18.3544" height="8.2595" stroke="#667085" stroke-width="0.5"/>
<rect x="24.9717" y="53.7848" width="18.3544" height="8.2595" fill="white"/>
<rect x="24.9717" y="53.7848" width="18.3544" height="8.2595" stroke="#667085" stroke-width="0.5"/>
<rect x="43.3262" y="45.5253" width="18.3544" height="8.2595" fill="white"/>
<rect x="43.3262" y="45.5253" width="18.3544" height="8.2595" stroke="#667085" stroke-width="0.5"/>
<rect x="43.3262" y="37.2658" width="18.3544" height="8.2595" fill="white"/>
<rect x="43.3262" y="37.2658" width="18.3544" height="8.2595" stroke="#667085" stroke-width="0.5"/>
<rect x="43.3262" y="53.7848" width="18.3544" height="8.2595" fill="white"/>
<rect x="43.3262" y="53.7848" width="18.3544" height="8.2595" stroke="#667085" stroke-width="0.5"/>
<rect x="18.0884" y="45.5253" width="6.88291" height="8.2595" fill="#F2F4F7"/>
<path d="M21.5319 50.6786C21.4163 50.6786 21.313 50.6587 21.2221 50.6188C21.1317 50.579 21.0601 50.5237 21.0074 50.453C20.9552 50.3817 20.9271 50.2992 20.9232 50.2055H21.1876C21.1909 50.2565 21.208 50.3009 21.2389 50.3385C21.2703 50.3755 21.3113 50.4041 21.3618 50.4243C21.4123 50.4446 21.4685 50.4547 21.5302 50.4547C21.5981 50.4547 21.6582 50.4429 21.7104 50.4193C21.7631 50.3957 21.8044 50.3629 21.8341 50.3208C21.8639 50.2781 21.8788 50.229 21.8788 50.1735C21.8788 50.1157 21.8639 50.0649 21.8341 50.0211C21.8049 49.9767 21.762 49.9419 21.7053 49.9167C21.6492 49.8914 21.5813 49.8788 21.5016 49.8788H21.3559V49.6666H21.5016C21.5656 49.6666 21.6217 49.6551 21.67 49.6321C21.7188 49.6091 21.757 49.5771 21.7845 49.5361C21.812 49.4946 21.8257 49.4461 21.8257 49.3905C21.8257 49.3372 21.8136 49.2909 21.7895 49.2516C21.7659 49.2117 21.7323 49.1806 21.6885 49.1581C21.6453 49.1357 21.5942 49.1245 21.5353 49.1245C21.4791 49.1245 21.4267 49.1348 21.3778 49.1556C21.3296 49.1758 21.2903 49.205 21.26 49.2432C21.2296 49.2808 21.2134 49.326 21.2111 49.3787H20.9594C20.9622 49.2855 20.9897 49.2036 21.0419 49.1329C21.0947 49.0622 21.1643 49.0069 21.2507 48.967C21.3371 48.9272 21.4331 48.9073 21.5386 48.9073C21.6492 48.9073 21.7446 48.9289 21.8249 48.9721C21.9057 49.0147 21.968 49.0717 22.0118 49.143C22.0561 49.2143 22.078 49.2923 22.0774 49.377C22.078 49.4736 22.0511 49.5555 21.9966 49.6229C21.9427 49.6902 21.8709 49.7354 21.7811 49.7584V49.7719C21.8956 49.7893 21.9843 49.8347 22.0471 49.9083C22.1106 49.9818 22.142 50.073 22.1414 50.1819C22.142 50.2767 22.1156 50.3618 22.0623 50.437C22.0095 50.5122 21.9374 50.5714 21.8459 50.6146C21.7544 50.6573 21.6498 50.6786 21.5319 50.6786Z" fill="#0C0F1E"/>
<rect x="18.0884" y="45.5253" width="6.88291" height="8.2595" stroke="#667085" stroke-width="0.5"/>
<path d="M18.0884 30.0063C18.0884 29.4541 18.5361 29.0063 19.0884 29.0063H24.9713V37.2658H18.0884V30.0063Z" fill="#F2F4F7"/>
<path d="M21.7895 32.4119V34.1361H21.5285V32.6729H21.5184L21.1059 32.9423V32.6931L21.5361 32.4119H21.7895Z" fill="#0C0F1E"/>
<path d="M18.0884 30.0063C18.0884 29.4541 18.5361 29.0063 19.0884 29.0063H24.9713V37.2658H18.0884V30.0063Z" stroke="#667085" stroke-width="0.5"/>
<rect x="18.0884" y="37.2658" width="6.88291" height="8.2595" fill="#F2F4F7"/>
<path d="M20.9687 42.3956V42.207L21.5521 41.6025C21.6144 41.5368 21.6658 41.4793 21.7062 41.4299C21.7471 41.3799 21.7777 41.3325 21.7979 41.2876C21.8181 41.2427 21.8282 41.195 21.8282 41.1445C21.8282 41.0872 21.8148 41.0379 21.7878 40.9963C21.7609 40.9542 21.7241 40.922 21.6775 40.8995C21.631 40.8765 21.5785 40.865 21.5201 40.865C21.4584 40.865 21.4045 40.8776 21.3585 40.9029C21.3124 40.9281 21.2771 40.9638 21.2524 41.0098C21.2277 41.0558 21.2153 41.1097 21.2153 41.1714H20.967C20.967 41.0665 20.9911 40.9747 21.0394 40.8961C21.0876 40.8176 21.1539 40.7567 21.2381 40.7134C21.3223 40.6697 21.418 40.6478 21.5252 40.6478C21.6335 40.6478 21.7289 40.6694 21.8114 40.7126C21.8945 40.7553 21.9593 40.8136 22.0059 40.8877C22.0525 40.9612 22.0758 41.0443 22.0758 41.1369C22.0758 41.2009 22.0637 41.2635 22.0396 41.3247C22.016 41.3858 21.9747 41.454 21.9158 41.5292C21.8569 41.6039 21.7749 41.6945 21.67 41.8012L21.3273 42.1598V42.1725H22.1035V42.3956H20.9687Z" fill="#0C0F1E"/>
<rect x="18.0884" y="37.2658" width="6.88291" height="8.2595" stroke="#667085" stroke-width="0.5"/>
<rect x="18.0884" y="53.7848" width="6.88291" height="8.2595" fill="#F2F4F7"/>
<path d="M20.8838 58.5778V58.3673L21.6289 57.1903H21.7948V57.5002H21.6895L21.1566 58.3437V58.3572H22.1778V58.5778H20.8838ZM21.7013 58.9146V58.5138L21.703 58.4178V57.1903H21.9497V58.9146H21.7013Z" fill="#0C0F1E"/>
<rect x="18.0884" y="53.7848" width="6.88291" height="8.2595" stroke="#667085" stroke-width="0.5"/>
<rect x="43.3262" y="20.7468" width="18.3544" height="8.2595" fill="#F2F4F7"/>
<path d="M51.9174 25.8766V24.1524H52.5488C52.6712 24.1524 52.7725 24.1726 52.8528 24.213C52.933 24.2528 52.9931 24.307 53.0329 24.3755C53.0728 24.4434 53.0927 24.52 53.0927 24.6053C53.0927 24.6772 53.0795 24.7378 53.0531 24.7872C53.0268 24.836 52.9914 24.8753 52.9471 24.905C52.9033 24.9342 52.855 24.9556 52.8023 24.969V24.9859C52.8595 24.9887 52.9154 25.0072 52.9698 25.0414C53.0248 25.0751 53.0703 25.1231 53.1062 25.1854C53.1421 25.2477 53.1601 25.3235 53.1601 25.4127C53.1601 25.5008 53.1393 25.58 53.0978 25.6501C53.0568 25.7197 52.9934 25.775 52.9075 25.816C52.8216 25.8564 52.7119 25.8766 52.5783 25.8766H51.9174ZM52.1776 25.6535H52.5531C52.6777 25.6535 52.7669 25.6293 52.8208 25.5811C52.8747 25.5328 52.9016 25.4725 52.9016 25.4001C52.9016 25.3456 52.8879 25.2957 52.8604 25.2502C52.8328 25.2048 52.7936 25.1686 52.7425 25.1416C52.692 25.1147 52.6319 25.1012 52.5623 25.1012H52.1776V25.6535ZM52.1776 24.8983H52.5261C52.5845 24.8983 52.637 24.8871 52.6836 24.8646C52.7307 24.8422 52.768 24.8107 52.7955 24.7703C52.8236 24.7294 52.8376 24.6811 52.8376 24.6255C52.8376 24.5542 52.8126 24.4945 52.7627 24.4462C52.7127 24.3979 52.6361 24.3738 52.5329 24.3738H52.1776V24.8983Z" fill="#0C0F1E"/>
<rect x="43.3262" y="20.7468" width="18.3544" height="8.2595" stroke="#667085" stroke-width="0.5"/>
</g>
</svg>
