<svg width="30" height="30" viewBox="0 0 30 30" fill="none" xmlns="http://www.w3.org/2000/svg">
<path opacity="0.4" d="M15 30C23.2843 30 30 23.2843 30 15C30 6.71573 23.2843 0 15 0C6.71573 0 0 6.71573 0 15C0 23.2843 6.71573 30 15 30Z" fill="#667085"/>
<path d="M15 7.39502C11.895 7.39502 9.375 9.91502 9.375 13.02C9.375 16.065 11.76 18.54 14.925 18.63C14.97 18.63 15.03 18.63 15.06 18.63C15.09 18.63 15.135 18.63 15.165 18.63C15.18 18.63 15.195 18.63 15.195 18.63C18.225 18.525 20.61 16.065 20.625 13.02C20.625 9.91502 18.105 7.39502 15 7.39502Z" fill="#667085"/>
<path d="M25.1696 26.0247C22.4996 28.4847 18.9296 29.9997 14.9996 29.9997C11.0696 29.9997 7.49959 28.4847 4.82959 26.0247C5.18959 24.6597 6.16459 23.4147 7.58959 22.4547C11.6846 19.7247 18.3446 19.7247 22.4096 22.4547C23.8496 23.4147 24.8096 24.6597 25.1696 26.0247Z" fill="#667085"/>
</svg>
