<svg width="30" height="30" viewBox="0 0 30 30" fill="none" xmlns="http://www.w3.org/2000/svg">
<rect width="30" height="30" rx="15" fill="#03373E"/>
<path d="M17.3601 19.7019H11.5067C10.884 19.7019 10.2613 19.2063 10.2613 18.463V11.5253C10.2613 10.9059 10.7595 10.2865 11.5067 10.2865H18.4809C19.1036 10.2865 19.7263 10.782 19.7263 11.5253V17.348C19.7263 17.9674 19.9754 18.463 20.349 18.9585L22.3416 20.9407C22.5907 21.1885 22.9643 21.1885 23.0889 20.8168C25.9533 16.9763 25.5797 11.4014 22.0926 7.93261C18.2318 4.09212 11.8803 4.09212 7.89505 7.93261C4.03433 11.7731 4.03433 18.0913 7.89505 22.0557C11.3822 25.5245 16.8619 25.8962 20.8472 23.0468C21.0962 22.799 21.0962 22.4274 20.9717 22.3035L18.9791 20.3213C18.6054 19.9496 17.9827 19.7019 17.3601 19.7019Z" fill="#00CC66"/>
<path d="M17.235 17.9672H12.8761C12.5025 17.9672 12.1289 17.5956 12.1289 17.2239V12.8879C12.1289 12.5162 12.5025 12.1445 12.8761 12.1445H17.3596C17.7332 12.1445 18.1068 12.5162 18.1068 12.8879V17.3478C17.9823 17.5955 17.6086 17.9672 17.235 17.9672Z" fill="#00CC66"/>
</svg>
