<svg width="62" height="62" viewBox="0 0 62 62" fill="none" xmlns="http://www.w3.org/2000/svg">
<circle cx="31" cy="31" r="30.5" fill="#F2F4F7" stroke="#F2F4F7"/>
<path d="M27.9245 40.4468L27.9238 40.4475L25.3989 43.0613L25.3985 43.0618C24.8891 43.5916 24.2956 43.7953 23.7549 43.7289C23.2142 43.6625 22.6876 43.3213 22.3216 42.6839L22.3213 42.6834L20.5048 39.5381C20.3836 39.3207 20.1809 39.1264 19.9619 38.9811C19.7418 38.8351 19.4818 38.7229 19.2309 38.6921L17.0597 38.4255C13.2008 37.9516 10.4534 34.4495 10.9252 30.607L11.103 29.1595L12.1659 20.5037C12.6395 16.6464 16.1529 13.9134 20.0115 14.3873L34.4861 16.1647C38.3447 16.6385 41.0925 20.1403 40.6188 23.9976L39.3782 34.1009C38.9063 37.9434 35.3932 40.6768 31.5343 40.2029L29.3631 39.9363C28.8357 39.8715 28.2976 40.0636 27.9245 40.4468Z" fill="white" stroke="#667085" stroke-width="0.5"/>
<path d="M33.317 25.6869L18.8424 23.9095C18.249 23.8366 17.8173 23.2841 17.8901 22.6906C17.963 22.0971 18.5156 21.6654 19.109 21.7383L33.5836 23.5157C34.1771 23.5886 34.6088 24.1412 34.5359 24.7346C34.4631 25.3281 33.9105 25.7598 33.317 25.6869Z" fill="#F2F4F7"/>
<path d="M26.6385 32.2133L17.9537 31.1468C17.3603 31.0739 16.9286 30.5214 17.0015 29.9279C17.0743 29.3344 17.6269 28.9027 18.2204 28.9756L26.9051 30.0421C27.4986 30.1149 27.9303 30.6675 27.8574 31.261C27.7845 31.8544 27.232 32.2861 26.6385 32.2133Z" fill="#F2F4F7"/>
<path d="M46.8023 44.4706L46.8021 44.4716L46.1903 46.7801L46.1902 46.7807C46.0735 47.2256 45.8144 47.5088 45.5113 47.6323C45.2082 47.7558 44.825 47.7342 44.4306 47.4976L44.4301 47.4972L42.381 46.2745C42.227 46.1796 42.0344 46.1305 41.8532 46.1165C41.6707 46.1025 41.4715 46.1219 41.3022 46.1909L39.971 46.7333C37.6484 47.6795 35.0005 46.5705 34.0586 44.2586L33.6971 43.3711L31.5348 38.0638C30.5892 35.7428 31.7086 33.0992 34.0309 32.1531L42.9059 28.5373C45.2282 27.5912 47.8762 28.6998 48.8219 31.0209L51.3457 37.2157C52.2876 39.5275 51.1686 42.1712 48.846 43.1175L47.5148 43.6598C47.1662 43.8019 46.9005 44.1058 46.8023 44.4706Z" fill="#F2F4F7" stroke="#667085" stroke-width="0.5"/>
<path d="M45.251 34.2969L36.376 37.9127C36.0121 38.0609 35.5874 37.8821 35.4392 37.5182C35.2909 37.1543 35.4697 36.7296 35.8336 36.5814L44.7086 32.9656C45.0725 32.8174 45.4972 32.9962 45.6455 33.3601C45.7937 33.7239 45.6149 34.1486 45.251 34.2969Z" fill="white"/>
<path d="M43.5086 40.1807L38.1836 42.3502C37.8197 42.4984 37.395 42.3196 37.2468 41.9558C37.0985 41.5919 37.2773 41.1672 37.6412 41.0189L42.9662 38.8495C43.3301 38.7012 43.7548 38.88 43.9031 39.2439C44.0513 39.6078 43.8725 40.0325 43.5086 40.1807Z" fill="white"/>
</svg>
