<svg width="40" height="40" viewBox="0 0 40 40" fill="none" xmlns="http://www.w3.org/2000/svg">
<rect width="40" height="40" rx="20" fill="#2ABB9A" fill-opacity="0.1"/>
<path opacity="0.4" d="M22.5001 12.5V20C22.5001 20.9167 21.7501 21.6667 20.8334 21.6667H11.6667V16.35C12.2751 17.075 13.2084 17.525 14.2418 17.5C15.0834 17.4833 15.8418 17.1583 16.4084 16.6167C16.6667 16.4 16.8834 16.125 17.0501 15.825C17.3501 15.3166 17.5167 14.7166 17.5001 14.0916C17.4751 13.1166 17.0418 12.2583 16.3668 11.6667H21.6667C22.1251 11.6667 22.5001 12.0417 22.5001 12.5Z" fill="#2ABB9A"/>
<path d="M28.3334 21.6667V24.1667C28.3334 25.55 27.2167 26.6667 25.8334 26.6667H25.0001C25.0001 25.75 24.2501 25 23.3334 25C22.4167 25 21.6667 25.75 21.6667 26.6667H18.3334C18.3334 25.75 17.5834 25 16.6667 25C15.7501 25 15.0001 25.75 15.0001 26.6667H14.1667C12.7834 26.6667 11.6667 25.55 11.6667 24.1667V21.6667H20.8334C21.7501 21.6667 22.5001 20.9167 22.5001 20V14.1667H24.0334C24.6334 14.1667 25.1834 14.4917 25.4834 15.0083L26.9084 17.5H25.8334C25.3751 17.5 25.0001 17.875 25.0001 18.3333V20.8333C25.0001 21.2917 25.3751 21.6667 25.8334 21.6667H28.3334Z" fill="#2ABB9A"/>
<path opacity="0.4" d="M16.6667 28.3333C17.5871 28.3333 18.3333 27.5871 18.3333 26.6667C18.3333 25.7462 17.5871 25 16.6667 25C15.7462 25 15 25.7462 15 26.6667C15 27.5871 15.7462 28.3333 16.6667 28.3333Z" fill="#2ABB9A"/>
<path opacity="0.4" d="M23.3334 28.3333C24.2539 28.3333 25.0001 27.5871 25.0001 26.6667C25.0001 25.7462 24.2539 25 23.3334 25C22.4129 25 21.6667 25.7462 21.6667 26.6667C21.6667 27.5871 22.4129 28.3333 23.3334 28.3333Z" fill="#2ABB9A"/>
<path opacity="0.4" d="M28.3333 20.4417V21.6667H25.8333C25.375 21.6667 25 21.2917 25 20.8333V18.3333C25 17.875 25.375 17.5 25.8333 17.5H26.9083L28.1167 19.6166C28.2583 19.8666 28.3333 20.15 28.3333 20.4417Z" fill="#2ABB9A"/>
<path d="M16.3666 11.6667C15.7666 11.1334 14.9665 10.8167 14.0915 10.8334C13.3082 10.85 12.5916 11.1417 12.0249 11.6084C11.2749 12.2334 10.8082 13.1917 10.8332 14.2417C10.8499 14.8667 11.0332 15.45 11.3582 15.9417C11.4499 16.0834 11.5499 16.225 11.6666 16.35C12.2749 17.075 13.2083 17.525 14.2416 17.5C15.0833 17.4834 15.8416 17.1584 16.4082 16.6167C16.6666 16.4 16.8833 16.125 17.0499 15.825C17.3499 15.3167 17.5166 14.7167 17.4999 14.0917C17.4749 13.1167 17.0416 12.2584 16.3666 11.6667ZM15.8832 13.7667L14.1415 15.45C14.0165 15.5667 13.8666 15.625 13.7082 15.625C13.5499 15.625 13.3999 15.5667 13.2749 15.45L12.4332 14.65C12.1832 14.4084 12.1749 14.0167 12.4166 13.7667C12.6583 13.5167 13.0499 13.5084 13.2999 13.75L13.7082 14.1417L15.0166 12.875C15.2666 12.6334 15.6582 12.6417 15.8999 12.8917C16.1416 13.1333 16.1332 13.525 15.8832 13.7667Z" fill="#2ABB9A"/>
</svg>
