<svg width="19" height="18" viewBox="0 0 19 18" fill="none" xmlns="http://www.w3.org/2000/svg">
<path d="M12.0184 9C12.0184 10.485 10.8184 11.685 9.33344 11.685C7.84844 11.685 6.64844 10.485 6.64844 9C6.64844 7.515 7.84844 6.315 9.33344 6.315C10.8184 6.315 12.0184 7.515 12.0184 9Z" stroke="#667085" stroke-linecap="round" stroke-linejoin="round"/>
<path d="M9.33289 15.2025C11.9804 15.2025 14.4479 13.6425 16.1654 10.9425C16.8404 9.88499 16.8404 8.10749 16.1654 7.04999C14.4479 4.34999 11.9804 2.78999 9.33289 2.78999C6.68539 2.78999 4.21789 4.34999 2.50039 7.04999C1.82539 8.10749 1.82539 9.88499 2.50039 10.9425C4.21789 13.6425 6.68539 15.2025 9.33289 15.2025Z" stroke="#667085" stroke-linecap="round" stroke-linejoin="round"/>
</svg>
