<svg width="19" height="18" viewBox="0 0 19 18" fill="none" xmlns="http://www.w3.org/2000/svg">
<path d="M11.2309 7.1025L7.43594 10.8975C6.94844 10.41 6.64844 9.7425 6.64844 9C6.64844 7.515 7.84844 6.315 9.33344 6.315C10.0759 6.315 10.7434 6.615 11.2309 7.1025Z" stroke="#667085" stroke-linecap="round" stroke-linejoin="round"/>
<path d="M13.6979 4.3275C12.3854 3.3375 10.8854 2.7975 9.33289 2.7975C6.68539 2.7975 4.21789 4.3575 2.50039 7.0575C1.82539 8.115 1.82539 9.8925 2.50039 10.95C3.09289 11.88 3.78289 12.6825 4.53289 13.3275" stroke="#667085" stroke-linecap="round" stroke-linejoin="round"/>
<path d="M6.64844 14.6475C7.50344 15.0075 8.41094 15.2025 9.33344 15.2025C11.9809 15.2025 14.4484 13.6425 16.1659 10.9425C16.8409 9.885 16.8409 8.1075 16.1659 7.05C15.9184 6.66 15.6484 6.2925 15.3709 5.9475" stroke="#667085" stroke-linecap="round" stroke-linejoin="round"/>
<path d="M11.9656 9.525C11.7706 10.5825 10.9081 11.445 9.85059 11.64" stroke="#667085" stroke-linecap="round" stroke-linejoin="round"/>
<path d="M7.43551 10.8975L1.83301 16.5" stroke="#667085" stroke-linecap="round" stroke-linejoin="round"/>
<path d="M16.833 1.5L11.2305 7.1025" stroke="#667085" stroke-linecap="round" stroke-linejoin="round"/>
</svg>
