<svg width="18" height="18" viewBox="0 0 18 18" fill="none" xmlns="http://www.w3.org/2000/svg">
<path d="M0.75 16.5H17.25" stroke="#667085" stroke-miterlimit="10" stroke-linecap="round" stroke-linejoin="round"/>
<path d="M14.835 16.5075V13.1625" stroke="#667085" stroke-miterlimit="10" stroke-linecap="round" stroke-linejoin="round"/>
<path d="M14.8502 8.16751C13.9352 8.16751 13.2002 8.90252 13.2002 9.81752V11.52C13.2002 12.435 13.9352 13.17 14.8502 13.17C15.7652 13.17 16.5002 12.435 16.5002 11.52V9.81752C16.5002 8.90252 15.7652 8.16751 14.8502 8.16751Z" stroke="#667085" stroke-miterlimit="10" stroke-linecap="round" stroke-linejoin="round"/>
<path d="M1.5752 16.5V4.52252C1.5752 3.01502 2.32523 2.25751 3.81773 2.25751H8.49022C9.98272 2.25751 10.7252 3.01502 10.7252 4.52252V16.5" stroke="#667085" stroke-miterlimit="10" stroke-linecap="round" stroke-linejoin="round"/>
<path d="M4.34961 6.1875H8.06212" stroke="#667085" stroke-miterlimit="10" stroke-linecap="round" stroke-linejoin="round"/>
<path d="M4.34961 9H8.06212" stroke="#667085" stroke-miterlimit="10" stroke-linecap="round" stroke-linejoin="round"/>
<path d="M6.1875 16.5V13.6875" stroke="#667085" stroke-miterlimit="10" stroke-linecap="round" stroke-linejoin="round"/>
</svg>
