<svg width="417" height="603" viewBox="0 0 417 603" fill="none" xmlns="http://www.w3.org/2000/svg">
<g clip-path="url(#clip0_745_21386)">
<rect width="417" height="602.997" fill="#03373E"/>
<g opacity="0.14">
<path d="M367.735 519.705L367.799 519.657L367.875 519.632C372.755 518.005 375.121 514.792 375.517 511.23C375.917 507.634 374.319 503.576 371.04 500.297L317.298 446.555C303.909 436.518 290.579 429.874 273.94 429.874L115.999 429.874C95.528 429.874 81.8943 412.815 81.8943 395.769L81.8943 207.584C81.8943 187.113 98.9535 173.479 115.999 173.479L304.184 173.479C324.655 173.479 338.289 190.538 338.289 207.584L338.289 365.525C338.289 382.211 344.968 398.881 354.945 408.858L408.712 462.625C410.238 464.151 413.413 464.994 417.124 464.582C420.794 464.174 424.872 462.546 428.139 459.293C505.263 351.956 495.19 204.393 401.287 110.487C293.944 6.5014 122.877 6.50915 18.9021 110.481C-85.0846 217.825 -85.0758 388.894 18.8992 492.869C112.817 586.787 263.76 596.847 367.735 519.705Z" stroke="#00CC66"/>
<path d="M290.241 362.169L290.241 244.553C290.241 239.675 287.797 234.755 284.086 231.045C280.376 227.335 275.456 224.891 270.578 224.891L152.962 224.891C148.084 224.891 143.164 227.335 139.454 231.045C135.743 234.755 133.299 239.675 133.299 244.553L133.299 365.53C133.299 370.408 135.743 375.328 139.454 379.038C143.164 382.748 148.084 385.192 152.962 385.192L273.82 385.192C277.09 383.532 281.183 380.247 284.47 376.139C287.794 371.983 290.241 367.05 290.241 362.169Z" stroke="#00CC66"/>
</g>
<path d="M62.6941 65.4153H55.7357C54.9954 65.4153 54.2552 64.8262 54.2552 63.9426V55.6951C54.2552 54.9588 54.8474 54.2224 55.7357 54.2224H64.0266C64.7668 54.2224 65.5071 54.8115 65.5071 55.6951V62.6171C65.5071 63.3535 65.8032 63.9426 66.2473 64.5317L68.6162 66.8881C68.9123 67.1826 69.3564 67.1826 69.5045 66.7408C72.9096 62.1753 72.4655 55.5479 68.3201 51.4242C63.7305 46.8586 56.1798 46.8586 51.4422 51.4242C46.8526 55.9897 46.8526 63.5007 51.4422 68.2136C55.5876 72.3373 62.1019 72.7791 66.8395 69.3918C67.1356 69.0972 67.1356 68.6554 66.9876 68.5081L64.6188 66.1517C64.1746 65.7099 63.4344 65.4153 62.6941 65.4153Z" fill="#00CC66"/>
<path d="M62.5462 63.3533H57.3644C56.9202 63.3533 56.4761 62.9115 56.4761 62.4697V57.3151C56.4761 56.8732 56.9202 56.4314 57.3644 56.4314H62.6942C63.1384 56.4314 63.5825 56.8732 63.5825 57.3151V62.617C63.4345 62.9115 62.9903 63.3533 62.5462 63.3533Z" fill="#00CC66"/>
<g clip-path="url(#clip1_745_21386)">
<path d="M132.456 51.3662V51.6684H131.948V53.2395H131.574V51.6684H131.078V51.3662H132.456Z" fill="white"/>
<path d="M134.777 51.3662V53.2395H134.402V52.0309L133.894 53.2395H133.604L133.109 52.0309V53.2395H132.722V51.3662H133.157L133.749 52.756L134.354 51.3662H134.777Z" fill="white"/>
<path d="M116.431 55.9709H113.35V68.2978H116.431V55.9709Z" fill="white"/>
<path d="M98.8712 68.2857H94.5205L93.6262 67.3914L93.0703 66.7992C93.2756 66.6608 93.4732 66.5116 93.6625 66.352C93.8777 66.2038 94.0836 66.0423 94.2788 65.8686C94.6458 65.4972 94.9775 65.0927 95.2698 64.6601L98.8712 68.2857Z" fill="white"/>
<path d="M110.268 55.9709V68.2857H107.186V66.5092C107.077 66.6421 106.968 66.7751 106.847 66.8959C105.945 67.7846 104.73 68.2836 103.464 68.2857C102.886 68.2869 102.313 68.1846 101.772 67.9836C100.869 67.6326 100.093 67.0187 99.5436 66.2215C98.9941 65.4242 98.6967 64.4803 98.6899 63.5121V55.9709H101.772V62.9803C101.776 63.5105 101.936 64.0277 102.231 64.468C102.526 64.9082 102.945 65.2519 103.434 65.4566C103.923 65.6612 104.461 65.7177 104.982 65.6191C105.503 65.5205 105.984 65.2711 106.364 64.9019C106.868 64.389 107.15 63.699 107.15 62.9803V55.9709H110.268Z" fill="white"/>
<path d="M131.079 68.2977H126.728L122.74 64.3096L122.571 64.1404V68.2977H119.501V51.3662H122.571V60.116L122.74 59.9589L126.728 55.9707H131.079L127.997 59.0404L124.915 62.1342L131.079 68.2977Z" fill="white"/>
<path d="M95.7654 55.9709C95.3869 55.1869 94.885 54.4688 94.2789 53.8439C94.0932 53.6502 93.8955 53.4686 93.6867 53.3001C92.2604 52.1047 90.4796 51.413 88.6203 51.3321C86.761 51.2513 84.9269 51.7858 83.4022 52.8529C83.2088 52.9979 83.0034 53.143 82.8221 53.3001C82.6094 53.4685 82.4076 53.6501 82.2178 53.8439C81.8543 54.2184 81.5229 54.6226 81.2268 55.0524C81.0229 55.3553 80.8373 55.6701 80.6709 55.9951C79.7884 57.6728 79.4949 59.5983 79.8376 61.4628C80.1804 63.3273 81.1394 65.0226 82.5608 66.2768C83.9823 67.531 85.7838 68.2715 87.6764 68.3794C89.5691 68.4873 91.4431 67.9564 92.9979 66.8718C93.2031 66.7335 93.4008 66.5842 93.59 66.4247C93.8324 66.2557 94.0626 66.0699 94.2789 65.8687C95.0641 65.0734 95.6823 64.1291 96.0974 63.0914C96.5125 62.0537 96.716 60.9436 96.696 59.8261C96.7022 58.4847 96.3829 57.1618 95.7654 55.9709ZM92.9737 62.3882C92.7281 62.8369 92.4141 63.2446 92.0431 63.5967C91.691 63.9677 91.2833 64.2816 90.8346 64.5273C89.8202 65.045 88.6679 65.2281 87.543 65.0503C86.418 64.8725 85.3783 64.343 84.573 63.5377C83.7677 62.7324 83.2382 61.6927 83.0604 60.5678C82.8826 59.4428 83.0657 58.2905 83.5834 57.2761C83.8369 56.8326 84.15 56.426 84.514 56.0676C84.8761 55.7214 85.2825 55.4247 85.7225 55.1854C86.7337 54.644 87.8907 54.4377 89.0266 54.5962C90.1626 54.7548 91.2189 55.27 92.0431 56.0676C92.8661 56.8858 93.4016 57.9487 93.5694 59.097C93.7372 60.2453 93.5282 61.4171 92.9737 62.4365V62.3882Z" fill="white"/>
<path d="M116.613 53.0946C116.613 53.3198 116.569 53.5428 116.482 53.7504C116.394 53.958 116.266 54.146 116.105 54.3031C115.864 54.5435 115.558 54.7075 115.224 54.7743C114.89 54.8412 114.544 54.808 114.229 54.6789C113.914 54.5498 113.644 54.3306 113.453 54.0487C113.263 53.7669 113.159 53.435 113.156 53.0946C113.157 52.8696 113.202 52.647 113.289 52.4396C113.376 52.2322 113.504 52.044 113.664 51.8861C113.985 51.5673 114.42 51.3884 114.872 51.3884C115.325 51.3884 115.759 51.5673 116.081 51.8861C116.245 52.042 116.377 52.2292 116.469 52.4367C116.56 52.6443 116.609 52.8679 116.613 53.0946Z" fill="white"/>
</g>
<path d="M84.912 236.793V225.225H75.936C76.736 226.441 77.136 227.929 77.136 229.689C77.136 233.465 74.768 236.089 70.032 237.561C70.416 239.321 71.28 240.777 72.624 241.929C73.968 243.049 75.584 243.609 77.472 243.609C79.712 243.609 81.504 243.001 82.848 241.785C84.224 240.537 84.912 238.873 84.912 236.793ZM94.176 222.009V225.225H88.656V252.825H84.912V243.513C83.28 245.721 80.688 246.825 77.136 246.825C74.32 246.825 71.872 245.913 69.792 244.089C67.488 247.001 64.336 248.457 60.336 248.457C57.488 248.457 55.088 247.641 53.136 246.009C51.216 244.377 50.256 242.137 50.256 239.289C50.256 236.665 51.136 234.489 52.896 232.761C54.688 231.001 56.976 230.121 59.76 230.121C60.944 230.121 61.952 230.249 62.784 230.505V233.817C62.08 233.529 61.136 233.385 59.952 233.385C58.288 233.385 56.88 233.945 55.728 235.065C54.608 236.153 54.048 237.561 54.048 239.289C54.048 241.113 54.672 242.585 55.92 243.705C57.168 244.825 58.752 245.385 60.672 245.385C63.52 245.385 65.92 244.185 67.872 241.785C66.656 239.961 65.888 237.769 65.568 235.209C68.128 234.825 70.064 234.121 71.376 233.097C72.72 232.073 73.392 230.873 73.392 229.497C73.392 227.833 72.896 226.409 71.904 225.225H46.944V222.009H94.176ZM92.0846 225.225V222.009H106.965V225.225H101.397V252.825H97.6526V225.225H92.0846ZM124.179 234.489V225.225H112.947V234.873C112.947 237.145 113.363 238.793 114.195 239.817C115.027 240.809 116.307 241.305 118.035 241.305C119.731 241.305 121.171 240.697 122.355 239.481C123.571 238.233 124.179 236.569 124.179 234.489ZM133.491 222.009V225.225H127.971V252.825H124.179V241.401C122.707 243.353 120.579 244.345 117.795 244.377C112.035 244.377 109.155 241.193 109.155 234.825V225.225H104.835V222.009H133.491ZM131.366 225.225V222.009H146.246V225.225H140.678V252.825H136.934V225.225H131.366ZM146.66 239.433V236.313H149.876C153.78 236.313 155.732 234.777 155.732 231.705V225.225H144.116V222.009H164.276V225.225H159.476V232.041C159.476 234.313 158.772 236.105 157.364 237.417C155.956 238.697 154.068 239.369 151.7 239.433H151.172L161.348 252.825H156.788L146.66 239.433ZM77.28 284.009V287.225H71.712V314.825H67.968V296.393H63.408C57.744 296.393 54.912 298.889 54.912 303.881C54.912 306.249 55.488 308.121 56.64 309.497C57.824 310.873 59.552 311.561 61.824 311.561C62.368 311.561 62.736 311.545 62.928 311.513V314.729C62.416 314.793 61.936 314.825 61.488 314.825C58.288 314.825 55.76 313.801 53.904 311.753C52.048 309.705 51.12 307.065 51.12 303.833C51.12 300.633 52.128 298.057 54.144 296.105C56.16 294.121 59.104 293.129 62.976 293.129H67.968V287.225H46.944V284.009H77.28ZM94.4599 296.489V287.225H83.2279V296.873C83.2279 299.145 83.6439 300.793 84.4759 301.817C85.3079 302.809 86.5879 303.305 88.3159 303.305C90.0119 303.305 91.4519 302.697 92.6359 301.481C93.8519 300.233 94.4599 298.569 94.4599 296.489ZM103.772 284.009V287.225H98.2519V314.825H94.4599V303.401C92.9879 305.353 90.8599 306.345 88.0759 306.377C82.3159 306.377 79.4359 303.193 79.4359 296.825V287.225H75.1159V284.009H103.772ZM101.647 287.225V284.009H116.527V287.225H110.959V314.825H107.215V287.225H101.647ZM134.893 287.225V294.329V294.377H126.829C125.709 294.377 124.749 294.633 123.949 295.145C123.181 295.657 122.797 296.441 122.797 297.497C122.797 298.425 123.133 299.177 123.805 299.753C124.477 300.329 125.357 300.633 126.445 300.665L130.525 300.377C132.765 300.409 134.477 301.049 135.661 302.297C136.877 303.545 137.485 305.161 137.485 307.145C137.485 309.225 136.701 310.985 135.133 312.425C133.597 313.833 131.677 314.537 129.373 314.537C126.685 314.537 124.461 313.753 122.701 312.185V317.705H119.005V306.761H122.365C122.909 308.105 123.805 309.225 125.053 310.121C126.301 310.985 127.693 311.417 129.229 311.417C130.541 311.417 131.613 311.017 132.445 310.217C133.309 309.417 133.741 308.377 133.741 307.097C133.741 306.041 133.405 305.193 132.733 304.553C132.061 303.913 131.149 303.577 129.997 303.545L125.917 303.881C123.965 303.817 122.317 303.209 120.973 302.057C119.661 300.873 119.005 299.385 119.005 297.593C119.005 295.545 119.709 293.961 121.117 292.841C122.557 291.721 124.397 291.161 126.637 291.161H131.101V287.225H114.397V284.009H130.285C128.653 282.313 127.837 280.265 127.837 277.865C127.837 275.689 128.557 273.865 129.997 272.393C131.437 270.921 133.309 270.185 135.613 270.185C136.957 270.185 138.077 270.409 138.973 270.857V274.265C138.077 273.817 137.085 273.593 135.997 273.593C134.781 273.593 133.757 274.057 132.925 274.985C132.093 275.881 131.677 277.017 131.677 278.393C131.677 279.545 131.933 280.633 132.445 281.657C132.957 282.649 133.565 283.433 134.269 284.009H141.133V287.225H134.893ZM135.037 277.193C135.485 276.745 136.045 276.521 136.717 276.521C137.389 276.521 137.949 276.745 138.397 277.193C138.877 277.641 139.117 278.201 139.117 278.873C139.117 279.545 138.877 280.105 138.397 280.553C137.949 280.969 137.389 281.177 136.717 281.177C136.045 281.177 135.485 280.969 135.037 280.553C134.621 280.105 134.413 279.545 134.413 278.873C134.413 278.201 134.621 277.641 135.037 277.193ZM178.08 287.225H160.416V294.089C161.888 292.553 163.76 291.785 166.032 291.785C168.656 291.785 170.784 292.585 172.416 294.185C174.048 295.785 174.864 297.881 174.864 300.473C174.864 303.257 173.952 305.481 172.128 307.145C170.304 308.809 168.032 309.641 165.312 309.641C164.96 309.641 164.592 309.609 164.208 309.545V306.329C164.528 306.393 164.848 306.425 165.168 306.425C166.864 306.425 168.272 305.897 169.392 304.841C170.512 303.785 171.072 302.329 171.072 300.473C171.072 298.841 170.56 297.513 169.536 296.489C168.544 295.433 167.232 294.905 165.6 294.905C164.192 294.905 162.976 295.401 161.952 296.393C160.928 297.353 160.416 298.569 160.416 300.041V314.825H156.624V307.913C155.216 309.385 153.36 310.121 151.056 310.121C148.432 310.121 146.304 309.337 144.672 307.769C143.04 306.169 142.224 304.073 142.224 301.481C142.224 298.697 143.136 296.473 144.96 294.809C146.784 293.113 149.04 292.265 151.728 292.265C152.24 292.265 152.608 292.313 152.832 292.409V295.577C152.672 295.545 152.368 295.529 151.92 295.529C150.192 295.529 148.768 296.057 147.648 297.113C146.528 298.169 145.968 299.609 145.968 301.433C145.968 303.065 146.48 304.409 147.504 305.465C148.528 306.521 149.856 307.049 151.488 307.049C152.896 307.049 154.096 306.553 155.088 305.561C156.112 304.569 156.624 303.337 156.624 301.865V287.225H138.96V284.009H178.08V287.225ZM185.159 284.009H190.823V287.225H185.255V314.825H181.559V287.225H175.991V284.009H181.031L177.095 278.009C176.007 276.345 174.551 275.513 172.727 275.513C172.087 275.513 171.287 275.609 170.327 275.801V272.537C171.479 272.345 172.343 272.249 172.919 272.249C174.551 272.249 175.943 272.601 177.095 273.305C178.247 273.977 179.303 275.065 180.263 276.569L185.159 284.009ZM201.085 320.729L205.549 309.977H210.589L204.397 320.729H201.085ZM59.664 360.841H70.272V349.225H60.96V356.089C60.96 358.105 60.528 359.689 59.664 360.841ZM79.536 346.009V349.225H74.016V376.825H70.272V364.105H62.208C58.656 364.105 55.936 363.961 54.048 363.673L62.88 376.825H58.32L49.344 363.289V360.313H52.512C54.336 360.313 55.568 359.961 56.208 359.257C56.88 358.521 57.216 357.369 57.216 355.801V349.225H46.944V346.009H79.536ZM77.4127 349.225V346.009H92.2928V349.225H86.7248V376.825H82.9808V349.225H77.4127ZM108.547 352.489C108.547 355.113 107.539 357.241 105.523 358.873C103.539 360.473 100.691 361.721 96.9788 362.617C97.9068 366.489 100.483 368.425 104.707 368.425C107.171 368.425 109.283 367.625 111.043 366.025C112.803 364.425 113.683 362.121 113.683 359.113V346.009H122.851V349.225H117.427V376.825H113.683V366.985C113.075 368.137 111.923 369.209 110.227 370.201C108.563 371.161 106.659 371.641 104.515 371.641C101.411 371.641 98.7228 370.697 96.4508 368.809C94.2108 366.921 92.9148 364.121 92.5628 360.409C96.7868 359.513 99.8908 358.457 101.875 357.241C103.859 356.025 104.851 354.457 104.851 352.537C104.851 351.449 104.579 350.569 104.035 349.897C103.523 349.225 102.739 348.889 101.683 348.889C100.627 348.889 99.8268 349.209 99.2828 349.849C98.7388 350.457 98.4668 351.241 98.4668 352.201C98.4668 352.937 98.6588 353.833 99.0428 354.889H95.3468C94.9628 353.801 94.7708 352.777 94.7708 351.817C94.7708 350.153 95.3948 348.729 96.6428 347.545C97.9228 346.329 99.6028 345.721 101.683 345.721C103.827 345.721 105.507 346.377 106.723 347.689C107.939 348.969 108.547 350.569 108.547 352.489ZM154.714 356.761H143.194C141.402 356.761 140.506 357.481 140.506 358.921C140.506 359.753 140.73 360.505 141.178 361.177C141.626 361.817 142.154 362.281 142.762 362.569C144.106 362.089 145.658 361.849 147.418 361.849C150.042 361.849 152.058 362.489 153.466 363.769C154.874 365.017 155.578 366.521 155.578 368.281C155.578 369.337 155.402 370.233 155.05 370.969H151.354C151.802 370.361 152.026 369.529 152.026 368.473C152.026 367.449 151.626 366.617 150.826 365.977C150.058 365.305 148.906 364.969 147.37 364.969C145.258 364.969 143.61 365.433 142.426 366.361C141.242 367.289 140.65 368.409 140.65 369.721C140.65 371.321 141.338 372.633 142.714 373.657C144.09 374.649 146.186 375.145 149.002 375.145C150.954 375.145 152.954 374.857 155.002 374.281V377.497C152.794 378.041 150.698 378.313 148.714 378.313C144.938 378.313 142.026 377.449 139.978 375.721C137.93 373.993 136.906 371.977 136.906 369.673C136.906 367.401 137.914 365.513 139.93 364.009C137.786 362.601 136.714 360.745 136.714 358.441C136.714 356.905 137.258 355.721 138.346 354.889C139.434 354.057 140.842 353.641 142.57 353.641H151.018V349.225H132.538V346.009H160.138V349.225H154.714V356.761ZM157.991 349.225V346.009H172.871V349.225H167.303V376.825H163.559V349.225H157.991ZM181.253 358.057H191.285V349.225H181.253V358.057ZM170.741 346.009H200.597V349.225H195.029V376.825H191.285V368.569L180.149 378.745H174.773L191.285 363.721V361.369H181.253V367.849H177.941L176.741 365.161C175.877 363.113 175.445 361.673 175.445 360.841C175.445 360.169 175.621 359.609 175.973 359.161C176.357 358.681 176.853 358.361 177.461 358.201V349.225H170.741V346.009ZM207.659 346.009H213.323V349.225H207.755V376.825H204.059V349.225H198.491V346.009H203.531L199.595 340.009C198.507 338.345 197.051 337.513 195.227 337.513C194.587 337.513 193.787 337.609 192.827 337.801V334.537C193.979 334.345 194.843 334.249 195.419 334.249C197.051 334.249 198.443 334.601 199.595 335.305C200.747 335.977 201.803 337.065 202.763 338.569L207.659 346.009Z" fill="#00CC66"/>
<path d="M60.304 543.653V539.797H57.312C57.5787 540.203 57.712 540.699 57.712 541.285C57.712 542.544 56.9227 543.419 55.344 543.909C55.472 544.496 55.76 544.981 56.208 545.365C56.656 545.739 57.1947 545.925 57.824 545.925C58.5707 545.925 59.168 545.723 59.616 545.317C60.0747 544.901 60.304 544.347 60.304 543.653ZM63.392 538.725V539.797H61.552V548.997H60.304V545.893C59.76 546.629 58.896 546.997 57.712 546.997C56.7733 546.997 55.9573 546.693 55.264 546.085C54.496 547.056 53.4453 547.541 52.112 547.541C51.1627 547.541 50.3627 547.269 49.712 546.725C49.072 546.181 48.752 545.435 48.752 544.485C48.752 543.611 49.0453 542.885 49.632 542.309C50.2293 541.723 50.992 541.429 51.92 541.429C52.3147 541.429 52.6507 541.472 52.928 541.557V542.661C52.6933 542.565 52.3787 542.517 51.984 542.517C51.4293 542.517 50.96 542.704 50.576 543.077C50.2027 543.44 50.016 543.909 50.016 544.485C50.016 545.093 50.224 545.584 50.64 545.957C51.056 546.331 51.584 546.517 52.224 546.517C53.1733 546.517 53.9733 546.117 54.624 545.317C54.2187 544.709 53.9627 543.979 53.856 543.125C54.7093 542.997 55.3547 542.763 55.792 542.421C56.24 542.08 56.464 541.68 56.464 541.221C56.464 540.667 56.2987 540.192 55.968 539.797H47.648V538.725H63.392ZM62.6949 539.797V538.725H67.6549V539.797H65.7989V548.997H64.5509V539.797H62.6949ZM73.3929 542.885V539.797H69.6489V543.013C69.6489 543.771 69.7875 544.32 70.0649 544.661C70.3422 544.992 70.7689 545.157 71.3449 545.157C71.9102 545.157 72.3902 544.955 72.7849 544.549C73.1902 544.133 73.3929 543.579 73.3929 542.885ZM76.4969 538.725V539.797H74.6569V548.997H73.3929V545.189C72.9022 545.84 72.1929 546.171 71.2649 546.181C69.3449 546.181 68.3849 545.12 68.3849 542.997V539.797H66.9449V538.725H76.4969ZM75.7886 539.797V538.725H80.7486V539.797H78.8926V548.997H77.6446V539.797H75.7886ZM80.8866 544.533V543.493H81.9586C83.26 543.493 83.9106 542.981 83.9106 541.957V539.797H80.0386V538.725H86.7586V539.797H85.1586V542.069C85.1586 542.827 84.924 543.424 84.4546 543.861C83.9853 544.288 83.356 544.512 82.5666 544.533H82.3906L85.7826 548.997H84.2626L80.8866 544.533ZM100.073 538.725V539.797H98.2165V548.997H96.9685V542.853H95.4485C93.5605 542.853 92.6165 543.685 92.6165 545.349C92.6165 546.139 92.8085 546.763 93.1925 547.221C93.5872 547.68 94.1632 547.909 94.9205 547.909C95.1018 547.909 95.2245 547.904 95.2885 547.893V548.965C95.1178 548.987 94.9578 548.997 94.8085 548.997C93.7418 548.997 92.8992 548.656 92.2805 547.973C91.6618 547.291 91.3525 546.411 91.3525 545.333C91.3525 544.267 91.6885 543.408 92.3605 542.757C93.0325 542.096 94.0138 541.765 95.3045 541.765H96.9685V539.797H89.9605V538.725H100.073ZM105.799 542.885V539.797H102.055V543.013C102.055 543.771 102.194 544.32 102.471 544.661C102.748 544.992 103.175 545.157 103.751 545.157C104.316 545.157 104.796 544.955 105.191 544.549C105.596 544.133 105.799 543.579 105.799 542.885ZM108.903 538.725V539.797H107.063V548.997H105.799V545.189C105.308 545.84 104.599 546.171 103.671 546.181C101.751 546.181 100.791 545.12 100.791 542.997V539.797H99.3511V538.725H108.903ZM108.195 539.797V538.725H113.155V539.797H111.299V548.997H110.051V539.797H108.195ZM119.277 539.797V542.165V542.181H116.589C116.216 542.181 115.896 542.267 115.629 542.437C115.373 542.608 115.245 542.869 115.245 543.221C115.245 543.531 115.357 543.781 115.581 543.973C115.805 544.165 116.098 544.267 116.461 544.277L117.821 544.181C118.568 544.192 119.138 544.405 119.533 544.821C119.938 545.237 120.141 545.776 120.141 546.437C120.141 547.131 119.88 547.717 119.357 548.197C118.845 548.667 118.205 548.901 117.437 548.901C116.541 548.901 115.8 548.64 115.213 548.117V549.957H113.981V546.309H115.101C115.282 546.757 115.581 547.131 115.997 547.429C116.413 547.717 116.877 547.861 117.389 547.861C117.826 547.861 118.184 547.728 118.461 547.461C118.749 547.195 118.893 546.848 118.893 546.421C118.893 546.069 118.781 545.787 118.557 545.573C118.333 545.36 118.029 545.248 117.645 545.237L116.285 545.349C115.634 545.328 115.085 545.125 114.637 544.741C114.2 544.347 113.981 543.851 113.981 543.253C113.981 542.571 114.216 542.043 114.685 541.669C115.165 541.296 115.778 541.109 116.525 541.109H118.013V539.797H112.445V538.725H117.741C117.197 538.16 116.925 537.477 116.925 536.677C116.925 535.952 117.165 535.344 117.645 534.853C118.125 534.363 118.749 534.117 119.517 534.117C119.965 534.117 120.338 534.192 120.637 534.341V535.477C120.338 535.328 120.008 535.253 119.645 535.253C119.24 535.253 118.898 535.408 118.621 535.717C118.344 536.016 118.205 536.395 118.205 536.853C118.205 537.237 118.29 537.6 118.461 537.941C118.632 538.272 118.834 538.533 119.069 538.725H121.357V539.797H119.277ZM119.325 536.453C119.474 536.304 119.661 536.229 119.885 536.229C120.109 536.229 120.296 536.304 120.445 536.453C120.605 536.603 120.685 536.789 120.685 537.013C120.685 537.237 120.605 537.424 120.445 537.573C120.296 537.712 120.109 537.781 119.885 537.781C119.661 537.781 119.474 537.712 119.325 537.573C119.186 537.424 119.117 537.237 119.117 537.013C119.117 536.789 119.186 536.603 119.325 536.453ZM133.672 539.797H127.784V542.085C128.275 541.573 128.899 541.317 129.656 541.317C130.531 541.317 131.24 541.584 131.784 542.117C132.328 542.651 132.6 543.349 132.6 544.213C132.6 545.141 132.296 545.883 131.688 546.437C131.08 546.992 130.323 547.269 129.416 547.269C129.299 547.269 129.176 547.259 129.048 547.237V546.165C129.155 546.187 129.262 546.197 129.368 546.197C129.934 546.197 130.403 546.021 130.776 545.669C131.15 545.317 131.336 544.832 131.336 544.213C131.336 543.669 131.166 543.227 130.824 542.885C130.494 542.533 130.056 542.357 129.512 542.357C129.043 542.357 128.638 542.523 128.296 542.853C127.955 543.173 127.784 543.579 127.784 544.069V548.997H126.52V546.693C126.051 547.184 125.432 547.429 124.664 547.429C123.79 547.429 123.08 547.168 122.536 546.645C121.992 546.112 121.72 545.413 121.72 544.549C121.72 543.621 122.024 542.88 122.632 542.325C123.24 541.76 123.992 541.477 124.888 541.477C125.059 541.477 125.182 541.493 125.256 541.525V542.581C125.203 542.571 125.102 542.565 124.952 542.565C124.376 542.565 123.902 542.741 123.528 543.093C123.155 543.445 122.968 543.925 122.968 544.533C122.968 545.077 123.139 545.525 123.48 545.877C123.822 546.229 124.264 546.405 124.808 546.405C125.278 546.405 125.678 546.24 126.008 545.909C126.35 545.579 126.52 545.168 126.52 544.677V539.797H120.632V538.725H133.672V539.797ZM136.032 538.725H137.92V539.797H136.064V548.997H134.832V539.797H132.976V538.725H134.656L133.344 536.725C132.981 536.171 132.496 535.893 131.888 535.893C131.675 535.893 131.408 535.925 131.088 535.989V534.901C131.472 534.837 131.76 534.805 131.952 534.805C132.496 534.805 132.96 534.923 133.344 535.157C133.728 535.381 134.08 535.744 134.4 536.245L136.032 538.725ZM141.341 550.965L142.829 547.381H144.509L142.445 550.965H141.341ZM156.763 543.669H160.299V539.797H157.195V542.085C157.195 542.757 157.051 543.285 156.763 543.669ZM163.387 538.725V539.797H161.547V548.997H160.299V544.757H157.611C156.427 544.757 155.52 544.709 154.891 544.613L157.835 548.997H156.315L153.323 544.485V543.493H154.379C154.987 543.493 155.398 543.376 155.611 543.141C155.835 542.896 155.947 542.512 155.947 541.989V539.797H152.523V538.725H163.387ZM162.679 539.797V538.725H167.639V539.797H165.783V548.997H164.535V539.797H162.679ZM173.057 540.885C173.057 541.76 172.721 542.469 172.049 543.013C171.388 543.547 170.439 543.963 169.201 544.261C169.511 545.552 170.369 546.197 171.777 546.197C172.599 546.197 173.303 545.931 173.889 545.397C174.476 544.864 174.769 544.096 174.769 543.093V538.725H177.825V539.797H176.017V548.997H174.769V545.717C174.567 546.101 174.183 546.459 173.617 546.789C173.063 547.109 172.428 547.269 171.713 547.269C170.679 547.269 169.783 546.955 169.025 546.325C168.279 545.696 167.847 544.763 167.729 543.525C169.137 543.227 170.172 542.875 170.833 542.469C171.495 542.064 171.825 541.541 171.825 540.901C171.825 540.539 171.735 540.245 171.553 540.021C171.383 539.797 171.121 539.685 170.769 539.685C170.417 539.685 170.151 539.792 169.969 540.005C169.788 540.208 169.697 540.469 169.697 540.789C169.697 541.035 169.761 541.333 169.889 541.685H168.657C168.529 541.323 168.465 540.981 168.465 540.661C168.465 540.107 168.673 539.632 169.089 539.237C169.516 538.832 170.076 538.629 170.769 538.629C171.484 538.629 172.044 538.848 172.449 539.285C172.855 539.712 173.057 540.245 173.057 540.885ZM188.446 542.309H184.606C184.009 542.309 183.71 542.549 183.71 543.029C183.71 543.307 183.785 543.557 183.934 543.781C184.084 543.995 184.26 544.149 184.462 544.245C184.91 544.085 185.428 544.005 186.014 544.005C186.889 544.005 187.561 544.219 188.03 544.645C188.5 545.061 188.734 545.563 188.734 546.149C188.734 546.501 188.676 546.8 188.558 547.045H187.326C187.476 546.843 187.55 546.565 187.55 546.213C187.55 545.872 187.417 545.595 187.15 545.381C186.894 545.157 186.51 545.045 185.998 545.045C185.294 545.045 184.745 545.2 184.35 545.509C183.956 545.819 183.758 546.192 183.758 546.629C183.758 547.163 183.988 547.6 184.446 547.941C184.905 548.272 185.604 548.437 186.542 548.437C187.193 548.437 187.86 548.341 188.542 548.149V549.221C187.806 549.403 187.108 549.493 186.446 549.493C185.188 549.493 184.217 549.205 183.534 548.629C182.852 548.053 182.51 547.381 182.51 546.613C182.51 545.856 182.846 545.227 183.518 544.725C182.804 544.256 182.446 543.637 182.446 542.869C182.446 542.357 182.628 541.963 182.99 541.685C183.353 541.408 183.822 541.269 184.398 541.269H187.214V539.797H181.054V538.725H190.254V539.797H188.446V542.309ZM189.539 539.797V538.725H194.499V539.797H192.643V548.997H191.395V539.797H189.539ZM197.293 542.741H200.637V539.797H197.293V542.741ZM193.789 538.725H203.741V539.797H201.885V548.997H200.637V546.245L196.925 549.637H195.133L200.637 544.629V543.845H197.293V546.005H196.189L195.789 545.109C195.501 544.427 195.357 543.947 195.357 543.669C195.357 543.445 195.415 543.259 195.533 543.109C195.661 542.949 195.826 542.843 196.029 542.789V539.797H193.789V538.725ZM206.095 538.725H207.983V539.797H206.127V548.997H204.895V539.797H203.039V538.725H204.719L203.407 536.725C203.044 536.171 202.559 535.893 201.951 535.893C201.737 535.893 201.471 535.925 201.151 535.989V534.901C201.535 534.837 201.823 534.805 202.015 534.805C202.559 534.805 203.023 534.923 203.407 535.157C203.791 535.381 204.143 535.744 204.463 536.245L206.095 538.725Z" fill="white"/>
</g>
<defs>
<clipPath id="clip0_745_21386">
<rect width="417" height="602.997" fill="white"/>
</clipPath>
<clipPath id="clip1_745_21386">
<rect width="55" height="16.9194" fill="white" transform="translate(79.7769 51.3663)"/>
</clipPath>
</defs>
</svg>
