<svg width="87" height="24" viewBox="0 0 87 24" fill="none" xmlns="http://www.w3.org/2000/svg">
<path d="M14.6941 17.5893H7.73569C6.99543 17.5893 6.25517 17.0002 6.25517 16.1165L6.25517 7.8691C6.25517 7.13272 6.84738 6.39634 7.73569 6.39634L16.0266 6.39634C16.7668 6.39634 17.5071 6.98544 17.5071 7.8691V14.791C17.5071 15.5274 17.8032 16.1165 18.2473 16.7056L20.6162 19.062C20.9123 19.3566 21.3564 19.3566 21.5045 18.9148C24.9096 14.3492 24.4655 7.72182 20.3201 3.59811C15.7305 -0.967435 8.17984 -0.967435 3.44219 3.59811C-1.1474 8.16365 -1.1474 15.6747 3.44219 20.3875C7.58763 24.5112 14.1019 24.9531 18.8395 21.5657C19.1356 21.2712 19.1356 20.8293 18.9876 20.6821L16.6188 18.3257C16.1746 17.8838 15.4344 17.5893 14.6941 17.5893Z" fill="#00CC66"/>
<path d="M14.5459 15.5273H9.36414C8.91998 15.5273 8.47583 15.0855 8.47583 14.6436V9.489C8.47583 9.04717 8.91998 8.60535 9.36414 8.60535H14.694C15.1381 8.60535 15.5823 9.04717 15.5823 9.489V14.7909C15.4342 15.0855 14.9901 15.5273 14.5459 15.5273Z" fill="#00CC66"/>
<g clip-path="url(#clip0_117_21104)">
<path d="M84.4557 3.54019V3.84232H83.9481V5.41341H83.5735V3.84232H83.078V3.54019H84.4557Z" fill="white"/>
<path d="M86.7764 3.54019V5.41341H86.4018V4.20488L85.8942 5.41341H85.6041L85.1087 4.20488V5.41341H84.7219V3.54019H85.157L85.7492 4.93L86.3534 3.54019H86.7764Z" fill="white"/>
<path d="M68.431 8.14481H65.3492V20.4718H68.431V8.14481Z" fill="white"/>
<path d="M50.8711 20.4596H46.5204L45.6261 19.5653L45.0702 18.9731C45.2754 18.8348 45.4731 18.6855 45.6624 18.526C45.8776 18.3777 46.0835 18.2163 46.2787 18.0426C46.6456 17.6712 46.9774 17.2666 47.2697 16.834L50.8711 20.4596Z" fill="white"/>
<path d="M62.2676 8.14481V20.4597H59.1859V18.6832C59.0771 18.8161 58.9683 18.949 58.8475 19.0699C57.9451 19.9585 56.7301 20.4576 55.4636 20.4597C54.8861 20.4608 54.3131 20.3585 53.7717 20.1576C52.8693 19.8066 52.093 19.1927 51.5436 18.3954C50.9941 17.5982 50.6967 16.6543 50.6899 15.686V8.14481H53.7717V15.1543C53.7758 15.6844 53.9355 16.2017 54.231 16.6419C54.5265 17.0821 54.9447 17.4259 55.4338 17.6305C55.9229 17.8352 56.4613 17.8917 56.9822 17.7931C57.5031 17.6945 57.9836 17.4451 58.3641 17.0758C58.8675 16.5629 59.1496 15.8729 59.1496 15.1543V8.14481H62.2676Z" fill="white"/>
<path d="M83.0785 20.4716H78.7278L74.7397 16.4835L74.5705 16.3143V20.4716H71.5009V3.54019H74.5705V12.2899L74.7397 12.1328L78.7278 8.14467H83.0785L79.9968 11.2143L76.915 14.3082L83.0785 20.4716Z" fill="white"/>
<path d="M47.7653 8.14486C47.3868 7.36087 46.8849 6.64273 46.2788 6.01785C46.0931 5.82419 45.8953 5.64255 45.6866 5.47402C44.2602 4.2786 42.4795 3.5869 40.6202 3.50607C38.7609 3.42523 36.9268 3.95976 35.402 5.02686C35.2087 5.17189 35.0032 5.31691 34.822 5.47402C34.6093 5.64244 34.4075 5.82408 34.2177 6.01785C33.8542 6.39235 33.5227 6.7966 33.2267 7.22638C33.0228 7.52927 32.8372 7.84404 32.6708 8.16903C31.7883 9.84677 31.4948 11.7723 31.8375 13.6368C32.1802 15.5012 33.1392 17.1965 34.5607 18.4508C35.9822 19.705 37.7837 20.4454 39.6763 20.5533C41.5689 20.6612 43.4429 20.1303 44.9977 19.0458C45.203 18.9074 45.4007 18.7582 45.5899 18.5986C45.8322 18.4296 46.0624 18.2439 46.2788 18.0427C47.0639 17.2473 47.6822 16.3031 48.0973 15.2654C48.5124 14.2277 48.7159 13.1175 48.6958 12.0001C48.7021 10.6586 48.3828 9.33572 47.7653 8.14486ZM44.9736 14.5621C44.7279 15.0108 44.414 15.4185 44.043 15.7707C43.6909 16.1417 43.2831 16.4556 42.8345 16.7012C41.8201 17.2189 40.6678 17.4021 39.5428 17.2243C38.4179 17.0465 37.3782 16.517 36.5729 15.7116C35.7676 14.9063 35.2381 13.8666 35.0603 12.7417C34.8825 11.6168 35.0656 10.4645 35.5833 9.45007C35.8368 9.00655 36.1499 8.59992 36.5139 8.24154C36.876 7.89535 37.2824 7.59869 37.7224 7.35932C38.7336 6.81791 39.8905 6.61162 41.0265 6.77018C42.1625 6.92873 43.2187 7.44395 44.043 8.24154C44.866 9.05975 45.4015 10.1227 45.5693 11.271C45.737 12.4193 45.528 13.591 44.9736 14.6105V14.5621Z" fill="white"/>
<path d="M68.6128 5.26855C68.6135 5.49373 68.5689 5.71676 68.4817 5.92437C68.3945 6.13198 68.2665 6.31994 68.1052 6.47708C67.8642 6.7175 67.5576 6.88141 67.2239 6.94826C66.8901 7.01511 66.5441 6.98191 66.2291 6.85283C65.9142 6.72375 65.6443 6.50454 65.4535 6.22269C65.2627 5.94085 65.1593 5.60892 65.1564 5.26855C65.157 5.04358 65.2022 4.82096 65.2893 4.61353C65.3764 4.40611 65.5038 4.21799 65.664 4.06003C65.9854 3.74121 66.4198 3.56232 66.8725 3.56232C67.3252 3.56232 67.7596 3.74121 68.081 4.06003C68.2456 4.21597 68.3774 4.40318 68.4687 4.6107C68.56 4.81821 68.609 5.04187 68.6128 5.26855Z" fill="white"/>
</g>
<defs>
<clipPath id="clip0_117_21104">
<rect width="55" height="16.9194" fill="white" transform="translate(31.7766 3.54028)"/>
</clipPath>
</defs>
</svg>
