<svg width="36" height="36" viewBox="0 0 36 36" fill="none" xmlns="http://www.w3.org/2000/svg">
<rect x="0.5" y="0.5" width="35" height="35" rx="17.5" fill="white"/>
<path d="M13.3333 16.6667C12.6 16.6667 12 17.2667 12 18C12 18.7333 12.6 19.3333 13.3333 19.3333C14.0667 19.3333 14.6667 18.7333 14.6667 18C14.6667 17.2667 14.0667 16.6667 13.3333 16.6667Z" stroke="#667085"/>
<path d="M22.6663 16.6667C21.933 16.6667 21.333 17.2667 21.333 18C21.333 18.7333 21.933 19.3333 22.6663 19.3333C23.3997 19.3333 23.9997 18.7333 23.9997 18C23.9997 17.2667 23.3997 16.6667 22.6663 16.6667Z" stroke="#667085"/>
<path d="M18.0003 16.6667C17.267 16.6667 16.667 17.2667 16.667 18C16.667 18.7333 17.267 19.3333 18.0003 19.3333C18.7337 19.3333 19.3337 18.7333 19.3337 18C19.3337 17.2667 18.7337 16.6667 18.0003 16.6667Z" stroke="#667085"/>
<rect x="0.5" y="0.5" width="35" height="35" rx="17.5" stroke="#D0D5DD"/>
</svg>
