<svg width="32" height="32" viewBox="0 0 32 32" fill="none" xmlns="http://www.w3.org/2000/svg">
<rect x="0.5" y="0.5" width="31" height="31" rx="15.5" fill="#DDE2E3"/>
<path d="M11.3333 14.667C10.6 14.667 10 15.267 10 16.0003C10 16.7337 10.6 17.3337 11.3333 17.3337C12.0667 17.3337 12.6667 16.7337 12.6667 16.0003C12.6667 15.267 12.0667 14.667 11.3333 14.667Z" stroke="#0C0F1E"/>
<path d="M20.6663 14.667C19.933 14.667 19.333 15.267 19.333 16.0003C19.333 16.7337 19.933 17.3337 20.6663 17.3337C21.3997 17.3337 21.9997 16.7337 21.9997 16.0003C21.9997 15.267 21.3997 14.667 20.6663 14.667Z" stroke="#0C0F1E"/>
<path d="M16.0003 14.667C15.267 14.667 14.667 15.267 14.667 16.0003C14.667 16.7337 15.267 17.3337 16.0003 17.3337C16.7337 17.3337 17.3337 16.7337 17.3337 16.0003C17.3337 15.267 16.7337 14.667 16.0003 14.667Z" stroke="#0C0F1E"/>
<rect x="0.5" y="0.5" width="31" height="31" rx="15.5" stroke="#03373E"/>
</svg>
