<svg width="32" height="32" viewBox="0 0 32 32" fill="none" xmlns="http://www.w3.org/2000/svg">
<rect width="32" height="32" rx="16" fill="#2ABB9A" fill-opacity="0.1"/>
<path d="M20.666 13.3333C21.7706 13.3333 22.666 12.4379 22.666 11.3333C22.666 10.2288 21.7706 9.33334 20.666 9.33334C19.5614 9.33334 18.666 10.2288 18.666 11.3333C18.666 12.4379 19.5614 13.3333 20.666 13.3333Z" fill="#2ABB9A"/>
<path opacity="0.4" d="M20.6673 14.3333C19.014 14.3333 17.6673 12.9867 17.6673 11.3333C17.6673 10.8533 17.794 10.4067 17.994 10H13.014C10.714 10 9.33398 11.3733 9.33398 13.68V18.98C9.33398 21.2933 10.714 22.6667 13.014 22.6667H18.314C20.6206 22.6667 21.994 21.2933 21.994 18.9867V14.0067C21.594 14.2067 21.1473 14.3333 20.6673 14.3333Z" fill="#2ABB9A"/>
<path d="M15.8333 17.3333H12.5C12.2267 17.3333 12 17.1067 12 16.8333C12 16.56 12.2267 16.3333 12.5 16.3333H15.8333C16.1067 16.3333 16.3333 16.56 16.3333 16.8333C16.3333 17.1067 16.1067 17.3333 15.8333 17.3333Z" fill="#2ABB9A"/>
<path d="M18.5 20H12.5C12.2267 20 12 19.7733 12 19.5C12 19.2267 12.2267 19 12.5 19H18.5C18.7733 19 19 19.2267 19 19.5C19 19.7733 18.7733 20 18.5 20Z" fill="#2ABB9A"/>
</svg>
