<svg width="40" height="40" viewBox="0 0 40 40" fill="none" xmlns="http://www.w3.org/2000/svg">
<rect width="40" height="40" rx="20" fill="#7063EC" fill-opacity="0.1"/>
<path opacity="0.4" d="M27.534 15.9917L20.0006 20.35L12.4673 15.9917C12.8006 15.375 13.284 14.8333 13.8256 14.5333L18.2756 12.0667C19.2256 11.5333 20.7756 11.5333 21.7256 12.0667L26.1756 14.5333C26.7173 14.8333 27.2006 15.375 27.534 15.9917Z" fill="#7063EC"/>
<path opacity="0.6" d="M20.0005 20.35V28.3333C19.3755 28.3333 18.7505 28.2 18.2755 27.9333L13.8255 25.4667C12.8172 24.9083 11.9922 23.5083 11.9922 22.3583V17.6417C11.9922 17.1083 12.1755 16.525 12.4672 15.9917L20.0005 20.35Z" fill="#7063EC"/>
<path d="M28.0088 17.6417V22.3583C28.0088 23.5083 27.1838 24.9083 26.1755 25.4667L21.7255 27.9333C21.2505 28.2 20.6255 28.3333 20.0005 28.3333V20.35L27.5338 15.9917C27.8255 16.525 28.0088 17.1083 28.0088 17.6417Z" fill="#7063EC"/>
</svg>
