<svg width="40" height="40" viewBox="0 0 40 40" fill="none" xmlns="http://www.w3.org/2000/svg">
<rect width="40" height="40" rx="20" fill="#1570EF" fill-opacity="0.1"/>
<path d="M28.3333 15V17.0167C28.3333 18.3333 27.4999 19.1667 26.1833 19.1667H23.3333V13.3417C23.3333 12.4167 24.0916 11.6667 25.0166 11.6667C25.9249 11.675 26.7583 12.0417 27.3583 12.6417C27.9583 13.25 28.3333 14.0833 28.3333 15Z" fill="#1570EF"/>
<path opacity="0.4" d="M11.6667 15.8333V27.5C11.6667 28.1917 12.4501 28.5833 13.0001 28.1667L14.4251 27.1C14.7584 26.85 15.2251 26.8833 15.5251 27.1833L16.9084 28.575C17.2334 28.9 17.7668 28.9 18.0918 28.575L19.4917 27.175C19.7834 26.8833 20.2501 26.85 20.5751 27.1L22.0001 28.1667C22.5501 28.575 23.3334 28.1833 23.3334 27.5V13.3333C23.3334 12.4167 24.0834 11.6667 25.0001 11.6667H15.8334H15.0001C12.5001 11.6667 11.6667 13.1583 11.6667 15V15.8333Z" fill="#1570EF"/>
<path d="M20 18.125H15C14.6583 18.125 14.375 17.8417 14.375 17.5C14.375 17.1583 14.6583 16.875 15 16.875H20C20.3417 16.875 20.625 17.1583 20.625 17.5C20.625 17.8417 20.3417 18.125 20 18.125Z" fill="#1570EF"/>
<path d="M19.375 21.4583H15.625C15.2833 21.4583 15 21.175 15 20.8333C15 20.4917 15.2833 20.2083 15.625 20.2083H19.375C19.7167 20.2083 20 20.4917 20 20.8333C20 21.175 19.7167 21.4583 19.375 21.4583Z" fill="#1570EF"/>
</svg>
