<svg width="18" height="18" viewBox="0 0 18 18" fill="none" xmlns="http://www.w3.org/2000/svg">
<path d="M5.02441 6.945L8.9994 9.2475L12.9444 6.96" stroke="#667085" stroke-linecap="round" stroke-linejoin="round"/>
<path d="M8.99902 13.3275V9.24" stroke="#667085" stroke-linecap="round" stroke-linejoin="round"/>
<path d="M8.0697 4.7175L5.66969 6.0525C5.12969 6.3525 4.67969 7.11 4.67969 7.7325V10.275C4.67969 10.8975 5.12219 11.655 5.66969 11.955L8.0697 13.29C8.5797 13.575 9.41969 13.575 9.93719 13.29L12.3372 11.955C12.8772 11.655 13.3272 10.8975 13.3272 10.275V7.725C13.3272 7.1025 12.8847 6.345 12.3372 6.045L9.93719 4.71C9.41969 4.425 8.5797 4.425 8.0697 4.7175Z" stroke="#667085" stroke-linecap="round" stroke-linejoin="round"/>
<path d="M16.5 11.25C16.5 14.1525 14.1525 16.5 11.25 16.5L12.0375 15.1875" stroke="#667085" stroke-linecap="round" stroke-linejoin="round"/>
<path d="M1.5 6.75C1.5 3.8475 3.8475 1.5 6.75 1.5L5.96251 2.8125" stroke="#667085" stroke-linecap="round" stroke-linejoin="round"/>
</svg>
