<svg width="18" height="18" viewBox="0 0 18 18" fill="none" xmlns="http://www.w3.org/2000/svg">
<path d="M1.5 6.75V5.25C1.5 3 3 1.5 5.25 1.5H12.75C15 1.5 16.5 3 16.5 5.25V6.75" stroke="#667085" stroke-miterlimit="10" stroke-linecap="round" stroke-linejoin="round"/>
<path d="M1.5 11.25V12.75C1.5 15 3 16.5 5.25 16.5H12.75C15 16.5 16.5 15 16.5 12.75V11.25" stroke="#667085" stroke-miterlimit="10" stroke-linecap="round" stroke-linejoin="round"/>
<path d="M5.02539 6.94501L9.00039 9.24751L12.9454 6.96002" stroke="#667085" stroke-linecap="round" stroke-linejoin="round"/>
<path d="M9 13.3275V9.24001" stroke="#667085" stroke-linecap="round" stroke-linejoin="round"/>
<path d="M8.06968 4.7175L5.66968 6.05252C5.12968 6.35252 4.67969 7.11001 4.67969 7.73251V10.275C4.67969 10.8975 5.12218 11.655 5.66968 11.955L8.06968 13.29C8.57968 13.575 9.41968 13.575 9.93718 13.29L12.3372 11.955C12.8772 11.655 13.3272 10.8975 13.3272 10.275V7.73251C13.3272 7.11001 12.8847 6.35252 12.3372 6.05252L9.93718 4.7175C9.41968 4.425 8.57968 4.425 8.06968 4.7175Z" stroke="#667085" stroke-linecap="round" stroke-linejoin="round"/>
</svg>
