<svg width="17" height="16" viewBox="0 0 17 16" fill="none" xmlns="http://www.w3.org/2000/svg">
<path d="M5.38901 4.66666H11.7223V3.33333C11.7223 1.99999 11.2223 1.33333 9.72234 1.33333H7.38901C5.88901 1.33333 5.38901 1.99999 5.38901 3.33333V4.66666Z" stroke="#667085" stroke-miterlimit="10" stroke-linecap="round" stroke-linejoin="round"/>
<path d="M11.2223 10V12.6667C11.2223 14 10.5557 14.6667 9.22234 14.6667H7.88901C6.55567 14.6667 5.88901 14 5.88901 12.6667V10H11.2223Z" stroke="#667085" stroke-miterlimit="10" stroke-linecap="round" stroke-linejoin="round"/>
<path d="M14.5557 6.66667V10C14.5557 11.3333 13.889 12 12.5557 12H11.2223V10H5.889V12H4.55566C3.22233 12 2.55566 11.3333 2.55566 10V6.66667C2.55566 5.33334 3.22233 4.66667 4.55566 4.66667H12.5557C13.889 4.66667 14.5557 5.33334 14.5557 6.66667Z" stroke="#667085" stroke-miterlimit="10" stroke-linecap="round" stroke-linejoin="round"/>
<path d="M11.889 10H11.0823H5.22232" stroke="#667085" stroke-miterlimit="10" stroke-linecap="round" stroke-linejoin="round"/>
<path d="M5.22232 7.33333H7.22232" stroke="#667085" stroke-miterlimit="10" stroke-linecap="round" stroke-linejoin="round"/>
</svg>
