<svg width="24" height="24" viewBox="0 0 24 24" fill="none" xmlns="http://www.w3.org/2000/svg">
<path d="M14.8321 17.6696H7.80835C7.06114 17.6696 6.31393 17.0719 6.31393 16.1753L6.31393 7.80749C6.31393 7.06036 6.9117 6.31323 7.80835 6.31323L16.1771 6.31323C16.9243 6.31323 17.6715 6.91093 17.6715 7.80749V14.8305C17.6715 15.5776 17.9704 16.1753 18.4187 16.773L20.8098 19.1638C21.1087 19.4627 21.557 19.4627 21.7065 19.0144C25.1436 14.3822 24.6953 7.65806 20.5109 3.47414C15.8782 -1.15805 8.25668 -1.15805 3.47453 3.47414C-1.15818 8.10634 -1.15818 15.727 3.47453 20.5087C7.65891 24.6926 14.2344 25.1409 19.0165 21.7041C19.3154 21.4052 19.3154 20.9569 19.166 20.8075L16.7749 18.4167C16.3266 17.9684 15.5793 17.6696 14.8321 17.6696Z" fill="#00CC66"/>
<path d="M14.6823 15.5774H9.45183C9.0035 15.5774 8.55518 15.1292 8.55518 14.6809V9.451C8.55518 9.00272 9.0035 8.55444 9.45183 8.55444H14.8317C15.2801 8.55444 15.7284 9.00272 15.7284 9.451V14.8303C15.579 15.1292 15.1306 15.5774 14.6823 15.5774Z" fill="#00CC66"/>
</svg>
