<svg width="40" height="40" viewBox="0 0 40 40" fill="none" xmlns="http://www.w3.org/2000/svg">
<rect width="40" height="40" rx="20" fill="#EC6363" fill-opacity="0.1"/>
<path fill-rule="evenodd" clip-rule="evenodd" d="M16.3153 12.4266C14.0077 12.962 12.2917 15.0278 12.2917 17.5C12.2917 17.8452 12.0119 18.125 11.6667 18.125C11.3216 18.125 11.0417 17.8452 11.0417 17.5C11.0417 13.9298 13.9299 11.0417 17.5001 11.0417C17.7253 11.0417 17.933 11.1628 18.044 11.3587C18.1549 11.5547 18.1519 11.7951 18.036 11.9882L17.161 13.4465C16.9834 13.7425 16.5995 13.8385 16.3035 13.6609C16.0075 13.4833 15.9116 13.0994 16.0892 12.8034L16.3153 12.4266ZM28.3334 21.875C28.6786 21.875 28.9584 22.1548 28.9584 22.5C28.9584 26.0702 26.0703 28.9583 22.5001 28.9583C22.2749 28.9583 22.0671 28.8372 21.9562 28.6413C21.8453 28.4453 21.8483 28.2048 21.9641 28.0118L22.8391 26.5534C23.0167 26.2574 23.4006 26.1615 23.6966 26.3391C23.9926 26.5166 24.0886 26.9006 23.911 27.1965L23.6849 27.5734C25.9925 27.038 27.7084 24.9721 27.7084 22.5C27.7084 22.1548 27.9882 21.875 28.3334 21.875Z" fill="#EC6363"/>
<path d="M23.6667 16.8417L20.5334 15.15C20.2001 14.975 19.8084 14.975 19.4751 15.15L16.3417 16.8417C16.1167 16.9667 15.9751 17.2083 15.9751 17.4833C15.9751 17.7583 16.1167 18 16.3417 18.125L19.4751 19.8167C19.6417 19.9083 19.8251 19.95 20.0084 19.95C20.1918 19.95 20.3751 19.9083 20.5417 19.8167L23.6751 18.125C23.9001 18 24.0418 17.7583 24.0418 17.4833C24.0334 17.2083 23.8917 16.9667 23.6667 16.8417Z" fill="#EC6363"/>
<path opacity="0.4" d="M18.95 20.3917L16.0334 18.9333C15.8084 18.825 15.55 18.8333 15.3334 18.9667C15.1167 19.1 14.9917 19.325 14.9917 19.575V22.3333C14.9917 22.8083 15.2584 23.2417 15.6834 23.45L18.6 24.9083C18.7 24.9583 18.8084 24.9833 18.925 24.9833C19.0584 24.9833 19.1834 24.95 19.3 24.875C19.5167 24.7417 19.6417 24.5167 19.6417 24.2667V21.5083C19.6417 21.0333 19.3834 20.6083 18.95 20.3917Z" fill="#EC6363"/>
<path opacity="0.4" d="M24.6584 18.9667C24.4418 18.8333 24.1834 18.825 23.9584 18.9333L21.0418 20.3917C20.6168 20.6083 20.3501 21.0333 20.3501 21.5083V24.2667C20.3501 24.5167 20.4751 24.7417 20.6917 24.875C20.8084 24.95 20.9334 24.9833 21.0668 24.9833C21.1751 24.9833 21.2834 24.9583 21.3918 24.9083L24.3084 23.45C24.7334 23.2333 25.0001 22.8083 25.0001 22.3333V19.575C25.0001 19.325 24.8751 19.1 24.6584 18.9667Z" fill="#EC6363"/>
</svg>
