<svg width="12" height="14" viewBox="0 0 12 14" fill="none" xmlns="http://www.w3.org/2000/svg">
<path d="M0 0H11.0648L12 1.46087V1.57154H6.24225C6.33239 1.90356 6.40376 2.25033 6.45634 2.61186C6.51643 2.97339 6.54648 3.32016 6.54648 3.65217C6.54648 4.0137 6.50892 4.31989 6.4338 4.57075L6.45634 4.58182C6.74178 4.3531 7.09859 4.23874 7.52676 4.23874C7.83474 4.23874 8.1615 4.30514 8.50704 4.43794C8.85258 4.57075 9.1831 4.79209 9.49859 5.10198C9.83662 5.44137 10.0808 5.82872 10.231 6.26403C10.3812 6.69934 10.4563 7.13465 10.4563 7.56996C10.4563 7.81344 10.4338 8.04954 10.3887 8.27826C10.3512 8.50698 10.2911 8.73202 10.2085 8.95336C10.1258 9.1747 10.0244 9.40343 9.90423 9.63953C9.78404 9.86825 9.64883 10.1117 9.49859 10.37L8.02254 9.46245C8.3831 8.90909 8.68732 8.37787 8.93521 7.86877C9.1831 7.35968 9.30704 6.88379 9.30704 6.44111C9.30704 6.10909 9.20939 5.85823 9.01408 5.68854C8.81878 5.51884 8.55211 5.43399 8.21408 5.43399C7.74836 5.43399 7.30892 5.57787 6.89577 5.86561C6.48263 6.14598 6.07324 6.55547 5.66761 7.09407C5.50235 7.38182 5.30704 7.66219 5.08169 7.93518C4.85634 8.20079 4.60094 8.46271 4.31549 8.72095C4.69108 9.13412 5.06291 9.53254 5.43099 9.91621C5.79906 10.2999 6.17089 10.6798 6.54648 11.0561C6.92958 11.4324 7.31643 11.8124 7.70704 12.196C8.09765 12.5797 8.50329 12.9744 8.92394 13.3802L8.31549 14C8.21033 13.8967 8.05634 13.7455 7.85352 13.5462C7.65822 13.347 7.43286 13.122 7.17746 12.8711C6.92958 12.6203 6.65915 12.351 6.3662 12.0632C6.08075 11.7681 5.79155 11.4767 5.49859 11.1889C5.21315 10.8938 4.93521 10.6097 4.66479 10.3368C4.40188 10.0638 4.16526 9.8166 3.95493 9.59526C3.18122 8.76891 2.60657 8.07905 2.23099 7.52569C1.86291 6.96495 1.67887 6.48906 1.67887 6.09802C1.67887 5.78076 1.79155 5.54098 2.0169 5.37866C2.24225 5.21634 2.59155 5.13518 3.06479 5.13518C3.26761 5.13518 3.48169 5.15362 3.70704 5.19051C3.93991 5.2274 4.20657 5.28643 4.50704 5.36759C4.73239 5.08722 4.8939 4.76996 4.99155 4.41581C5.09671 4.05428 5.1493 3.67431 5.1493 3.27589C5.1493 2.98814 5.12676 2.7004 5.08169 2.41265C5.03662 2.1249 4.9615 1.84453 4.85634 1.57154H0.935211L0 0.110672V0Z" fill="#D0D5DD"/>
</svg>
