<svg width="10" height="14" viewBox="0 0 10 14" fill="none" xmlns="http://www.w3.org/2000/svg">
<path d="M0 0.5H9.22066L10 1.85652V1.95929H5.20188C5.277 2.26759 5.33646 2.58959 5.38028 2.9253C5.43036 3.261 5.4554 3.583 5.4554 3.8913C5.4554 4.22701 5.4241 4.51133 5.3615 4.74427L5.38028 4.75455C5.61815 4.54216 5.91549 4.43597 6.2723 4.43597C6.52895 4.43597 6.80125 4.49763 7.0892 4.62095C7.37715 4.74427 7.65258 4.9498 7.91549 5.23755C8.19718 5.5527 8.40063 5.91238 8.52582 6.3166C8.65102 6.72082 8.71362 7.12503 8.71362 7.52925C8.71362 7.75534 8.69484 7.97457 8.65728 8.18696C8.62598 8.39934 8.5759 8.6083 8.50704 8.81383C8.43818 9.01937 8.35368 9.23175 8.25352 9.45099C8.15337 9.66337 8.04069 9.88946 7.91549 10.1292L6.68545 9.28656C6.98592 8.77273 7.23944 8.27945 7.44601 7.80672C7.65258 7.33399 7.75587 6.8921 7.75587 6.48103C7.75587 6.17273 7.67449 5.93979 7.51174 5.78221C7.34898 5.62464 7.12676 5.54585 6.84507 5.54585C6.45696 5.54585 6.09077 5.67945 5.74648 5.94664C5.40219 6.20698 5.06103 6.58722 4.723 7.08735C4.58529 7.35455 4.42254 7.61489 4.23474 7.86838C4.04695 8.11502 3.83412 8.35823 3.59624 8.59802C3.90923 8.98169 4.21909 9.35165 4.52582 9.70791C4.83255 10.0642 5.14241 10.417 5.4554 10.7664C5.77465 11.1158 6.09703 11.4686 6.42254 11.8249C6.74804 12.1812 7.08607 12.5477 7.43662 12.9245L6.92958 13.5C6.84194 13.4041 6.71361 13.2636 6.5446 13.0787C6.38185 12.8937 6.19405 12.6847 5.98122 12.4518C5.77465 12.2188 5.5493 11.9688 5.30516 11.7016C5.06729 11.4275 4.82629 11.1569 4.58216 10.8897C4.34429 10.6157 4.11268 10.3519 3.88732 10.0984C3.66823 9.84493 3.47105 9.61542 3.29577 9.40988C2.65102 8.64256 2.17214 8.00198 1.85915 7.48814C1.55243 6.96746 1.39906 6.52556 1.39906 6.16245C1.39906 5.86785 1.49296 5.64519 1.68075 5.49447C1.86854 5.34374 2.15962 5.26838 2.55399 5.26838C2.723 5.26838 2.90141 5.28551 3.0892 5.31976C3.28326 5.35402 3.50548 5.40883 3.75587 5.48419C3.94366 5.22385 4.07825 4.92925 4.15962 4.6004C4.24726 4.26469 4.29108 3.91186 4.29108 3.5419C4.29108 3.2747 4.2723 3.00751 4.23474 2.74032C4.19718 2.47312 4.13459 2.21278 4.04695 1.95929H0.779343L0 0.602767V0.5Z" fill="#0C0F1E"/>
</svg>
