<svg width="36" height="36" viewBox="0 0 36 36" fill="none" xmlns="http://www.w3.org/2000/svg">
<rect x="0.5" y="0.5" width="35" height="35" rx="17.5" fill="white"/>
<path d="M18 20.5C19.3807 20.5 20.5 19.3807 20.5 18C20.5 16.6193 19.3807 15.5 18 15.5C16.6193 15.5 15.5 16.6193 15.5 18C15.5 19.3807 16.6193 20.5 18 20.5Z" stroke="#667085" stroke-miterlimit="10" stroke-linecap="round" stroke-linejoin="round"/>
<path d="M9.66675 18.7333V17.2667C9.66675 16.4 10.3751 15.6833 11.2501 15.6833C12.7584 15.6833 13.3751 14.6167 12.6167 13.3083C12.1834 12.5583 12.4417 11.5833 13.2001 11.15L14.6417 10.325C15.3001 9.93333 16.1501 10.1667 16.5417 10.825L16.6334 10.9833C17.3834 12.2917 18.6167 12.2917 19.3751 10.9833L19.4667 10.825C19.8584 10.1667 20.7084 9.93333 21.3667 10.325L22.8084 11.15C23.5667 11.5833 23.8251 12.5583 23.3917 13.3083C22.6334 14.6167 23.2501 15.6833 24.7584 15.6833C25.6251 15.6833 26.3417 16.3917 26.3417 17.2667V18.7333C26.3417 19.6 25.6334 20.3167 24.7584 20.3167C23.2501 20.3167 22.6334 21.3833 23.3917 22.6917C23.8251 23.45 23.5667 24.4167 22.8084 24.85L21.3667 25.675C20.7084 26.0667 19.8584 25.8333 19.4667 25.175L19.3751 25.0167C18.6251 23.7083 17.3917 23.7083 16.6334 25.0167L16.5417 25.175C16.1501 25.8333 15.3001 26.0667 14.6417 25.675L13.2001 24.85C12.4417 24.4167 12.1834 23.4417 12.6167 22.6917C13.3751 21.3833 12.7584 20.3167 11.2501 20.3167C10.3751 20.3167 9.66675 19.6 9.66675 18.7333Z" stroke="#667085" stroke-miterlimit="10" stroke-linecap="round" stroke-linejoin="round"/>
<rect x="0.5" y="0.5" width="35" height="35" rx="17.5" stroke="#D0D5DD"/>
</svg>
