<svg width="175" height="79" viewBox="0 0 175 79" fill="none" xmlns="http://www.w3.org/2000/svg">
<path d="M27.9969 38.6589C34.5501 33.2345 69.6948 2.17774 72.3078 29.2578C74.0931 47.7602 47.0124 62.3406 33.6255 68.7184C30.6732 70.125 5.79369 81.2216 1.88935 75.3651C-1.85182 69.7533 23.034 58.4541 25.0029 57.5808C46.6986 47.9582 70.7951 40.8296 94.3435 37.7008C102.791 36.5784 105.432 37.516 105.601 45.7247C105.721 51.548 105.59 50.6985 110.032 46.8025C115.792 41.7498 123.865 33.0048 131.708 31.3536C133.543 30.9672 134.788 34.1425 135.78 35.1859C139.995 39.617 147.006 35.5733 151.229 33.3296C157.216 30.149 169.187 24.8425 171.947 17.9405C173.42 14.2587 172.55 8.38298 172.367 4.5275C172.008 -3.00252 167.744 8.16946 167.277 9.55738C162.649 23.2918 159.711 37.257 154.043 50.6947C150.419 59.2875 146.307 67.3132 140.81 74.8261C138.98 77.3273 140.091 71.2148 140.091 69.916" stroke="black" stroke-width="3" stroke-linecap="round"/>
</svg>
