<svg width="18" height="18" viewBox="0 0 18 18" fill="none" xmlns="http://www.w3.org/2000/svg">
<path d="M9.10449 11.3025V9.8325C9.10449 7.9425 10.6345 6.40499 12.532 6.40499H14.002" stroke="#667085" stroke-linecap="round" stroke-linejoin="round"/>
<path d="M4.21484 6.4125H5.68486C7.57486 6.4125 9.11237 7.9425 9.11237 9.84V10.3275V12.9375" stroke="#667085" stroke-linecap="round" stroke-linejoin="round"/>
<path d="M5.35487 5.0625L4.00488 6.4125L5.35487 7.7625" stroke="#667085" stroke-linecap="round" stroke-linejoin="round"/>
<path d="M12.6445 5.0625L13.9945 6.4125L12.6445 7.7625" stroke="#667085" stroke-linecap="round" stroke-linejoin="round"/>
<path d="M6.75 16.5H11.25C15 16.5 16.5 15 16.5 11.25V6.75C16.5 3 15 1.5 11.25 1.5H6.75C3 1.5 1.5 3 1.5 6.75V11.25C1.5 15 3 16.5 6.75 16.5Z" stroke="#667085" stroke-linecap="round" stroke-linejoin="round"/>
</svg>
