<svg width="17" height="16" viewBox="0 0 17 16" fill="none" xmlns="http://www.w3.org/2000/svg">
<path d="M14.5557 3.98667C12.3357 3.76667 10.1023 3.65334 7.87566 3.65334C6.55566 3.65334 5.23566 3.72 3.91566 3.85334L2.55566 3.98667" stroke="#667085" stroke-linecap="round" stroke-linejoin="round"/>
<path d="M6.22232 3.31333L6.36899 2.44C6.47565 1.80666 6.55565 1.33333 7.68232 1.33333H9.42899C10.5557 1.33333 10.6423 1.83333 10.7423 2.44666L10.889 3.31333" stroke="#667085" stroke-linecap="round" stroke-linejoin="round"/>
<path d="M13.1223 6.09334L12.689 12.8067C12.6157 13.8533 12.5556 14.6667 10.6956 14.6667H6.41565C4.55565 14.6667 4.49565 13.8533 4.42232 12.8067L3.98898 6.09334" stroke="#667085" stroke-linecap="round" stroke-linejoin="round"/>
<path d="M7.44232 11H9.66232" stroke="#667085" stroke-linecap="round" stroke-linejoin="round"/>
<path d="M6.88901 8.33333H10.2223" stroke="#667085" stroke-linecap="round" stroke-linejoin="round"/>
</svg>
